<?xml version="1.0" standalone="no"?><!DOCTYPE svg PUBLIC "-//W3C//DTD SVG 1.1//EN" "http://www.w3.org/Graphics/SVG/1.1/DTD/svg11.dtd"><svg t="1585982352556" class="icon" viewBox="0 0 1024 1024" version="1.1" xmlns="http://www.w3.org/2000/svg" p-id="11980" xmlns:xlink="http://www.w3.org/1999/xlink" width="200" height="200"><defs><style type="text/css"></style></defs><path d="M512 69.818182c-257.070545 0-465.454545 208.384-465.454545 465.454545 0 257.070545 208.384 465.454545 465.454545 465.454545 257.070545 0 465.454545-208.384 465.454545-465.454545C977.454545 278.202182 769.070545 69.818182 512 69.818182zM512 954.181818c-231.377455 0-418.909091-187.531636-418.909091-418.909091 0-231.377455 187.531636-418.909091 418.909091-418.909091 231.377455 0 418.909091 187.531636 418.909091 418.909091C930.909091 766.650182 743.377455 954.181818 512 954.181818zM725.922909 321.349818c-9.076364-9.076364-23.831273-9.076364-32.907636 0L512 502.365091 330.984727 321.349818c-9.076364-9.076364-23.831273-9.076364-32.907636 0-9.076364 9.076364-9.076364 23.831273 0 32.907636l181.015273 181.015273-181.015273 181.015273c-9.076364 9.076364-9.076364 23.831273 0 32.907636 9.076364 9.076364 23.831273 9.076364 32.907636 0L512 568.180364l181.015273 181.015273c9.076364 9.076364 23.831273 9.076364 32.907636 0 9.076364-9.076364 9.076364-23.831273 0-32.907636L544.907636 535.272727l181.015273-181.015273C734.999273 345.181091 734.999273 330.426182 725.922909 321.349818z" p-id="11981"></path></svg>