<?xml version="1.0" standalone="no"?><!DOCTYPE svg PUBLIC "-//W3C//DTD SVG 1.1//EN" "http://www.w3.org/Graphics/SVG/1.1/DTD/svg11.dtd"><svg t="1585978011339" class="icon" viewBox="0 0 1110 1024" version="1.1" xmlns="http://www.w3.org/2000/svg" p-id="7930" xmlns:xlink="http://www.w3.org/1999/xlink" width="216.796875" height="200"><defs><style type="text/css"></style></defs><path d="M981.333333 842.666667c1.322667 175.509333-170.666667 170.666667-170.666667 170.666667s-1.173333-68.842667 0-64c46.677333-0.810667 98.325333 11.050667 106.666667-106.666667 6.421333-152.96-147.050667-279.210667-209.045333-323.818667C664.298667 548.16 611.498667 565.333333 554.666667 565.333333s-109.632-17.173333-153.621333-46.485333C339.050667 563.456 185.578667 689.706667 192 842.666667c8.341333 117.717333 60.010667 105.856 106.666667 106.666667 1.152-4.842667 0 64 0 64s-171.989333 4.842667-170.666667-170.666667c0.96-127.146667 126.421333-305.045333 234.922667-354.602667C310.272 437.589333 277.333333 366.698667 277.333333 288 277.333333 134.826667 401.493333 10.666667 554.666667 10.666667c153.173333 0 277.333333 124.16 277.333333 277.333333 0 78.698667-32.938667 149.589333-85.589333 200.064C854.912 537.621333 980.373333 715.52 981.333333 842.666667zM554.666667 74.666667c-117.824 0-213.333333 95.509333-213.333333 213.333333s95.509333 213.333333 213.333333 213.333333c117.824 0 213.333333-95.509333 213.333333-213.333333S672.490667 74.666667 554.666667 74.666667z" p-id="7931"></path></svg>