<?xml version="1.0" standalone="no"?><!DOCTYPE svg PUBLIC "-//W3C//DTD SVG 1.1//EN" "http://www.w3.org/Graphics/SVG/1.1/DTD/svg11.dtd"><svg t="1586057443927" class="icon" viewBox="0 0 1024 1024" version="1.1" xmlns="http://www.w3.org/2000/svg" p-id="3253" xmlns:xlink="http://www.w3.org/1999/xlink" width="200" height="200"><defs><style type="text/css"></style></defs><path d="M989.090909 907.636364H954.181818V370.036364c0-30.254545-25.6-55.854545-58.181818-55.854546h-132.654545v-39.563636c0-6.981818 0-25.6-102.4-121.018182-104.727273-97.745455-128-97.745455-137.309091-97.745455-9.309091 0-32.581818 0-141.963637 95.418182-107.054545 95.418182-107.054545 111.709091-107.054545 121.018182v39.563636H146.618182c-32.581818 0-58.181818 25.6-58.181818 55.854546V907.636364H37.236364c-13.963636 0-25.6 11.636364-25.6 25.6 0 13.963636 11.636364 25.6 25.6 25.6l954.181818-2.327273c13.963636 0 25.6-11.636364 25.6-25.6s-13.963636-23.272727-27.927273-23.272727z m-95.418182-542.254546c4.654545 0 6.981818 2.327273 6.981818 4.654546V907.636364h-139.636363V365.381818h132.654545zM414.254545 190.836364c58.181818-51.2 93.090909-76.8 107.054546-81.454546 32.581818 13.963636 169.890909 139.636364 190.836364 172.218182V907.636364h-44.218182v-179.2c0-55.854545-46.545455-100.072727-104.727273-100.072728h-86.109091C418.909091 628.363636 372.363636 672.581818 372.363636 728.436364V907.636364h-51.2V281.6c9.309091-11.636364 44.218182-48.872727 93.090909-90.763636zM616.727273 907.636364h-195.490909v-181.527273c0-27.927273 25.6-48.872727 55.854545-48.872727h86.109091c30.254545 0 55.854545 20.945455 55.854545 48.872727V907.636364zM137.309091 370.036364c0-2.327273 2.327273-4.654545 6.981818-4.654546h125.672727V907.636364H134.981818V370.036364z" p-id="3254"></path><path d="M397.963636 463.127273h225.745455c13.963636 0 25.6-11.636364 25.6-25.6 0-13.963636-11.636364-25.6-25.6-25.6h-225.745455c-13.963636 0-25.6 11.636364-25.6 25.6 2.327273 13.963636 11.636364 25.6 25.6 25.6zM397.963636 558.545455h225.745455c13.963636 0 25.6-11.636364 25.6-25.6s-11.636364-25.6-25.6-25.6h-225.745455c-13.963636 0-25.6 11.636364-25.6 25.6s11.636364 25.6 25.6 25.6zM397.963636 365.381818h225.745455c13.963636 0 25.6-11.636364 25.6-25.6s-11.636364-25.6-25.6-25.6h-225.745455c-13.963636 0-25.6 11.636364-25.6 25.6s11.636364 25.6 25.6 25.6z" p-id="3255"></path></svg>